<svg width="34" height="23" viewBox="0 0 34 23" fill="none" xmlns="http://www.w3.org/2000/svg">
<path d="M32 13.292C32.8284 13.292 33.5 12.6204 33.5 11.792C33.5 10.9636 32.8284 10.292 32 10.292V13.292ZM0.939339 10.7313C0.353552 11.3171 0.353552 12.2669 0.939339 12.8527L10.4853 22.3986C11.0711 22.9844 12.0208 22.9844 12.6066 22.3986C13.1924 21.8128 13.1924 20.8631 12.6066 20.2773L4.12132 11.792L12.6066 3.30671C13.1924 2.72092 13.1924 1.77118 12.6066 1.18539C12.0208 0.599604 11.0711 0.599604 10.4853 1.18539L0.939339 10.7313ZM32 10.292L2 10.292V13.292L32 13.292V10.292Z" fill="#626262"/>
</svg>
