<svg width="65" height="78" viewBox="0 0 65 78" fill="none" xmlns="http://www.w3.org/2000/svg">
<path d="M31.1225 0.328384C30.0075 0.815872 29.383 1.19672 27.7476 2.47639C25.5175 4.21307 25.2201 4.39588 24.447 4.39588C24.0753 4.39588 22.9157 4.1826 21.8452 3.92363C19.0798 3.26856 18.158 3.20763 17.3106 3.66465C16.3442 4.16737 15.809 5.02048 14.9912 7.3056C13.6978 10.9161 13.2369 11.4036 10.0701 12.4699C7.81022 13.2469 7.23038 13.5211 6.45727 14.2371C5.41654 15.1968 5.3422 16.1261 6.02611 19.63C6.68028 23.0729 6.59108 23.4537 4.242 26.4853C2.69578 28.4657 2.13081 29.5321 2.02674 30.6137C1.93753 31.6497 2.39843 32.5485 4.13793 34.7117C6.45727 37.5605 6.62081 38.2155 5.9369 41.5213C5.41654 43.9893 5.3868 45.3908 5.8477 46.2287C6.26399 47.0056 7.26012 47.6759 8.73201 48.2091C9.38618 48.4376 9.93628 48.7118 9.98088 48.8185C10.0255 48.9403 7.85482 52.9164 5.16379 57.6695C2.48763 62.4073 0.198028 66.5509 0.0939546 66.8708C-0.143926 67.5716 0.0790871 68.1962 0.658922 68.4857C0.881935 68.5923 2.53223 68.7294 4.82184 68.836C10.6648 69.095 10.7243 69.1255 13.8018 74.107C16.2847 78.1441 16.7159 78.5249 17.7417 77.5499C17.9945 77.3214 20.403 73.193 23.1238 68.379C25.8297 63.5651 28.1788 59.4823 28.3274 59.33C28.5951 59.0253 28.6099 59.0405 29.2195 59.528C30.1562 60.305 31.5537 60.96 32.416 61.0362C33.3378 61.1124 34.3191 60.701 35.5977 59.7108C36.0437 59.3757 36.4451 59.0862 36.5046 59.0862C36.5641 59.0862 38.8685 63.0776 41.6339 67.9525C44.4141 72.8426 46.8673 77.0624 47.1052 77.3214C47.5809 77.8851 48.2351 77.9917 48.7852 77.5956C48.9636 77.4738 49.9895 75.9199 51.0897 74.1375C52.175 72.3551 53.2752 70.6794 53.5428 70.4204C53.7956 70.1462 54.4646 69.7044 54.9998 69.4302L55.996 68.9274L60.0251 68.7294C64.3218 68.5161 64.5745 68.4704 64.9165 67.6783C65.0503 67.3736 65.0354 67.1603 64.7827 66.5814C64.6191 66.1853 62.3444 62.0873 59.7129 57.4562C57.0813 52.8403 54.9106 48.9708 54.8958 48.8794C54.866 48.7728 55.4607 48.4833 56.2338 48.2091C57.6165 47.7064 58.4342 47.1732 58.9992 46.381C59.4898 45.7107 59.5047 44.1111 59.0289 41.7955C58.3004 38.246 58.464 37.5452 60.6792 34.8183C63.5487 31.2993 63.5487 30.5223 60.7239 26.6376C58.8803 24.124 58.4937 23.3318 58.4937 22.0979C58.4937 21.5799 58.6573 20.3612 58.8654 19.3862C59.0884 18.3655 59.2371 17.1316 59.2371 16.446C59.2371 15.4254 59.1776 15.1816 58.8208 14.5875C58.3004 13.7496 57.2448 13.1555 55.1188 12.4852C51.61 11.3731 51.2235 11.0075 49.9597 7.45793C49.142 5.20329 48.7109 4.39588 47.9824 3.83222C47.1498 3.17715 45.7522 3.16192 43.2842 3.77129C40.9797 4.33495 39.7457 4.38065 38.7942 3.92363C38.4225 3.74081 37.3372 2.94865 36.3708 2.17171C33.7095 -0.0372314 32.7431 -0.372383 31.1225 0.328384ZM35.8653 7.97589C39.6565 8.60049 42.8828 10.002 45.886 12.3176C50.1381 15.5929 53.0671 20.3764 54.2713 26.0283C54.7025 27.9935 54.6579 33.3254 54.2119 35.2601C53.1265 39.9522 51.2978 43.3494 48.1013 46.6095C44.7858 49.9915 41.3514 51.911 36.7871 52.9317C34.9732 53.343 29.8439 53.343 28.0152 52.9317C20.0462 51.1493 13.891 45.5584 11.3933 37.8347C10.5012 35.0621 10.2634 33.5539 10.2634 30.5223C10.2634 25.7388 11.3784 21.9151 13.9654 17.878C17.2511 12.7442 22.648 9.16415 28.7437 8.05206C30.7211 7.70168 33.9622 7.65598 35.8653 7.97589Z" fill="#021859"/>
<path d="M30.3937 11.3425C25.9929 11.9062 22.2612 13.7647 19.1539 16.9487C15.4816 20.7115 13.6826 25.1598 13.6826 30.4461C13.6826 33.0206 13.8759 34.3307 14.5895 36.5245C15.5113 39.3885 16.9386 41.765 18.9903 43.8977C21.7706 46.8075 25.2347 48.727 29.13 49.5039C30.6911 49.8238 34.6161 49.7781 36.1921 49.4277C41.8715 48.1633 46.5548 44.5528 49.112 39.4342C50.6136 36.433 51.2083 33.9499 51.2083 30.705C51.2083 25.2817 49.4093 20.7876 45.7222 17.0248C42.9271 14.1761 40.013 12.5308 36.2664 11.6929C34.9729 11.4035 31.5534 11.2054 30.3937 11.3425ZM33.2037 18.8529C33.3673 19.0205 34.066 20.3154 34.7648 21.7322C36.6232 25.495 37.0841 25.8149 41.3511 26.4852C44.3395 26.9575 44.6666 27.0946 44.6666 27.902C44.6666 28.298 44.3395 28.7094 42.6 30.507C39.4778 33.7366 39.3143 34.2241 40.0428 38.5658C40.2807 40.0588 40.4442 41.3994 40.3996 41.5365C40.2361 41.9935 39.8644 42.3286 39.5224 42.3286C39.3291 42.3286 38.0654 41.7345 36.7124 41.0185C32.8766 38.9924 32.2968 38.9924 28.3718 41.0642C26.0822 42.2677 25.7848 42.3896 25.3982 42.2525C24.6697 41.9783 24.64 41.5669 25.1009 38.5963C25.7997 34.1936 25.5469 33.3558 22.6477 30.5679C20.7447 28.7398 20.3581 28.2066 20.492 27.6125C20.6406 27.0489 21.2799 26.8356 24.0304 26.4395C28.0298 25.8454 28.6096 25.4188 30.4235 21.6865C31.0776 20.3459 31.7467 19.0967 31.9251 18.8986C32.2968 18.4873 32.832 18.4721 33.2037 18.8529Z" fill="#021859"/>
</svg>
