<svg width="78" height="78" viewBox="0 0 78 78" fill="none" xmlns="http://www.w3.org/2000/svg">
<path d="M33.9707 0.247917C17.6465 2.39124 4.30525 14.6833 0.864709 30.7491C-0.288236 36.0983 -0.288236 41.8871 0.864709 47.2362C2.45687 54.6188 6.00721 61.1221 11.4608 66.5628C17.9027 73.0294 25.8452 76.8215 34.959 77.829C38.0701 78.1771 43.0479 77.9756 46.1956 77.3894C60.0127 74.7697 71.4506 64.8408 75.9526 51.5046C78.6794 43.4625 78.6794 34.5228 75.9709 26.4991C71.1029 12.1553 58.329 1.84167 43.3041 0.156319C41.0714 -0.0818253 36.2217 -0.0451889 33.9707 0.247917ZM55.2545 16.5519C55.6754 16.8999 55.8767 17.3579 56.261 18.7868C57.3957 23.0734 58.0362 27.7997 58.0362 31.8483C58.0179 42.5099 54.1015 49.7093 46.1956 53.6296C40.7054 56.3408 35.0871 56.2492 29.1576 53.3548C27.4923 52.5488 27.0165 52.3839 26.8151 52.5671C26.3027 52.9884 24.857 55.3516 24.3079 56.6339C24.0151 57.3667 23.5576 58.649 23.338 59.51C22.6975 61.8365 21.6543 62.5143 20.5014 61.3602C19.8792 60.719 19.8609 60.3893 20.3367 58.5757C21.0504 55.7912 22.6792 52.5854 24.3079 50.7352L25.1132 49.8192L24.8021 47.7492C24.4177 45.1479 24.5276 41.7405 25.0583 39.7071C25.9184 36.4463 27.474 33.8633 29.9995 31.4636C32.8178 28.7707 35.7459 27.0487 42.5721 24.0627C49.2518 21.1316 51.5211 19.6661 52.6741 17.5044C53.4427 16.0756 54.3211 15.7641 55.2545 16.5519Z" fill="#F2762E"/>
<path d="M52.4916 22.3224C50.9909 23.5498 48.6668 24.7772 43.8537 26.9022C36.0027 30.3645 32.9281 32.288 30.6588 35.2007C28.5543 37.8936 27.7673 40.33 27.749 44.2503C27.749 45.6792 27.8039 46.8882 27.8588 46.9615C27.932 47.0165 28.5543 46.6318 29.268 46.1005C29.9817 45.5693 31.6105 44.4701 32.9098 43.6824C40.2301 39.121 42.1517 37.4173 43.9635 33.8451C44.3478 33.0757 44.787 32.3979 44.9517 32.3246C46.0498 31.9033 47.2393 32.6177 47.2393 33.6985C47.2393 34.4679 45.9216 36.9593 44.6589 38.5348C42.8105 40.8613 40.9438 42.3268 35.6 45.6792C31.9399 47.9507 29.4876 49.6911 29.4876 49.9842C29.4876 50.2223 31.885 51.3398 33.3307 51.7794C38.0889 53.2266 42.5726 52.4755 47.1112 49.4895C52.9308 45.6242 55.6393 38.0951 54.7426 28.2761C54.5413 26.0595 53.8825 22.011 53.6812 21.6813C53.5897 21.5347 53.2053 21.7545 52.4916 22.3224Z" fill="#F2762E"/>
</svg>
